<svg xmlns="http://www.w3.org/2000/svg" xmlns:xlink="http://www.w3.org/1999/xlink" contentStyleType="text/css" height="815px" preserveAspectRatio="none" style="width:1354px;height:815px;background:#FFFFFF;" version="1.1" viewBox="0 0 1354 815" width="1354px" zoomAndPan="magnify"><defs/><g><!--class Algorithm--><g id="elem_Algorithm"><rect codeLine="2" fill="#F1F1F1" height="85.2422" id="Algorithm" rx="2.5" ry="2.5" style="stroke:#181818;stroke-width:0.5;" width="422.0947" x="464" y="540.5"/><ellipse cx="635.23" cy="556.5" fill="#B4A7E5" rx="11" ry="11" style="stroke:#181818;stroke-width:1.0;"/><path d="M636.1831,553.1406 L636.1831,559.7969 L637.9019,559.7969 Q638.5112,559.7969 638.7769,560.0313 Q639.0425,560.2656 639.0425,560.6563 Q639.0425,561.0313 638.7769,561.2656 Q638.5112,561.5 637.9019,561.5 L632.7612,561.5 Q632.1519,561.5 631.8862,561.2656 Q631.6206,561.0313 631.6206,560.6406 Q631.6206,560.2656 631.8862,560.0313 Q632.1519,559.7969 632.7612,559.7969 L634.48,559.7969 L634.48,553.1406 L632.7612,553.1406 Q632.1519,553.1406 631.8862,552.9063 Q631.6206,552.6719 631.6206,552.2813 Q631.6206,551.9063 631.8862,551.6719 Q632.1519,551.4375 632.7612,551.4375 L637.9019,551.4375 Q638.5112,551.4375 638.7769,551.6719 Q639.0425,551.9063 639.0425,552.2813 Q639.0425,552.6719 638.7769,552.9063 Q638.5112,553.1406 637.9019,553.1406 L636.1831,553.1406 Z " fill="#000000"/><text fill="#000000" font-family="sans-serif" font-size="14" font-style="italic" lengthAdjust="spacing" textLength="59.1309" x="655.73" y="562.2969">Algorithm</text><rect fill="#FFFFFF" height="17.9609" style="stroke:#181818;stroke-width:1.0;stroke-dasharray:2.0,2.0;" width="10.0039" x="879.0908" y="537.5"/><text fill="#000000" font-family="sans-serif" font-size="12" font-style="italic" lengthAdjust="spacing" textLength="8.0039" x="880.0908" y="551.4492">V</text><line style="stroke:#181818;stroke-width:0.5;" x1="465" x2="885.0947" y1="572.5" y2="572.5"/><line style="stroke:#181818;stroke-width:0.5;" x1="465" x2="885.0947" y1="580.5" y2="580.5"/><ellipse cx="475" cy="595.3105" fill="#84BE84" rx="3" ry="3" style="stroke:#038048;stroke-width:1.0;"/><text fill="#000000" font-family="sans-serif" font-size="14" lengthAdjust="spacing" textLength="396.0947" x="484" y="599.6074">recalculate(graph: Graph&lt;V, DefaultEdge&gt;, startVertex: V): void</text><ellipse cx="475" cy="613.9316" fill="#84BE84" rx="3" ry="3" style="stroke:#038048;stroke-width:1.0;"/><text fill="#000000" font-family="sans-serif" font-size="14" lengthAdjust="spacing" textLength="185.2061" x="484" y="618.2285">getNextHop(destination: V): V</text></g><!--class BellmanFord--><g id="elem_BellmanFord"><rect codeLine="7" fill="#F1F1F1" height="85.2422" id="BellmanFord" rx="2.5" ry="2.5" style="stroke:#181818;stroke-width:0.5;" width="422.0947" x="7" y="723"/><ellipse cx="168.1128" cy="739" fill="#ADD1B2" rx="11" ry="11" style="stroke:#181818;stroke-width:1.0;"/><path d="M170.8784,734.875 Q171.0347,734.6563 171.2222,734.5469 Q171.4097,734.4375 171.6284,734.4375 Q172.0034,734.4375 172.2378,734.7031 Q172.4722,734.9531 172.4722,735.5625 L172.4722,737.0156 Q172.4722,737.625 172.2378,737.8906 Q172.0034,738.1563 171.6284,738.1563 Q171.2847,738.1563 171.0815,737.9531 Q170.8784,737.7656 170.769,737.25 Q170.7222,736.8906 170.5347,736.7031 Q170.2065,736.3281 169.5972,736.1094 Q168.9878,735.8906 168.3628,735.8906 Q167.5972,735.8906 166.9565,736.2188 Q166.3315,736.5469 165.8315,737.2969 Q165.3472,738.0469 165.3472,739.0781 L165.3472,740.1719 Q165.3472,741.4063 166.2378,742.2344 Q167.1284,743.0469 168.7222,743.0469 Q169.6597,743.0469 170.3159,742.7969 Q170.7065,742.6406 171.1284,742.2031 Q171.394,741.9375 171.5347,741.8594 Q171.6909,741.7813 171.894,741.7813 Q172.2222,741.7813 172.4722,742.0469 Q172.7378,742.2969 172.7378,742.6406 Q172.7378,742.9844 172.394,743.3906 Q171.894,743.9688 171.0972,744.2969 Q170.019,744.75 168.7222,744.75 Q167.2065,744.75 166.0034,744.125 Q165.019,743.625 164.3315,742.5625 Q163.644,741.4844 163.644,740.2031 L163.644,739.0469 Q163.644,737.7188 164.2534,736.5781 Q164.8784,735.4219 165.9722,734.8125 Q167.0659,734.1875 168.3003,734.1875 Q169.0347,734.1875 169.6753,734.3594 Q170.3315,734.5156 170.8784,734.875 Z " fill="#000000"/><text fill="#000000" font-family="sans-serif" font-size="14" lengthAdjust="spacing" textLength="79.3652" x="188.6128" y="744.7969">BellmanFord</text><rect fill="#FFFFFF" height="17.9609" style="stroke:#181818;stroke-width:1.0;stroke-dasharray:2.0,2.0;" width="10.0039" x="422.0908" y="720"/><text fill="#000000" font-family="sans-serif" font-size="12" font-style="italic" lengthAdjust="spacing" textLength="8.0039" x="423.0908" y="733.9492">V</text><line style="stroke:#181818;stroke-width:0.5;" x1="8" x2="428.0947" y1="755" y2="755"/><line style="stroke:#181818;stroke-width:0.5;" x1="8" x2="428.0947" y1="763" y2="763"/><ellipse cx="18" cy="777.8105" fill="#84BE84" rx="3" ry="3" style="stroke:#038048;stroke-width:1.0;"/><text fill="#000000" font-family="sans-serif" font-size="14" lengthAdjust="spacing" textLength="396.0947" x="27" y="782.1074">recalculate(graph: Graph&lt;V, DefaultEdge&gt;, startVertex: V): void</text><ellipse cx="18" cy="796.4316" fill="#84BE84" rx="3" ry="3" style="stroke:#038048;stroke-width:1.0;"/><text fill="#000000" font-family="sans-serif" font-size="14" lengthAdjust="spacing" textLength="185.2061" x="27" y="800.7285">getNextHop(destination: V): V</text></g><!--class PathVector--><g id="elem_PathVector"><rect codeLine="12" fill="#F1F1F1" height="85.2422" id="PathVector" rx="2.5" ry="2.5" style="stroke:#181818;stroke-width:0.5;" width="422.0947" x="464" y="723"/><ellipse cx="630.1646" cy="739" fill="#ADD1B2" rx="11" ry="11" style="stroke:#181818;stroke-width:1.0;"/><path d="M632.9302,734.875 Q633.0864,734.6563 633.2739,734.5469 Q633.4614,734.4375 633.6802,734.4375 Q634.0552,734.4375 634.2896,734.7031 Q634.5239,734.9531 634.5239,735.5625 L634.5239,737.0156 Q634.5239,737.625 634.2896,737.8906 Q634.0552,738.1563 633.6802,738.1563 Q633.3364,738.1563 633.1333,737.9531 Q632.9302,737.7656 632.8208,737.25 Q632.7739,736.8906 632.5864,736.7031 Q632.2583,736.3281 631.6489,736.1094 Q631.0396,735.8906 630.4146,735.8906 Q629.6489,735.8906 629.0083,736.2188 Q628.3833,736.5469 627.8833,737.2969 Q627.3989,738.0469 627.3989,739.0781 L627.3989,740.1719 Q627.3989,741.4063 628.2896,742.2344 Q629.1802,743.0469 630.7739,743.0469 Q631.7114,743.0469 632.3677,742.7969 Q632.7583,742.6406 633.1802,742.2031 Q633.4458,741.9375 633.5864,741.8594 Q633.7427,741.7813 633.9458,741.7813 Q634.2739,741.7813 634.5239,742.0469 Q634.7896,742.2969 634.7896,742.6406 Q634.7896,742.9844 634.4458,743.3906 Q633.9458,743.9688 633.1489,744.2969 Q632.0708,744.75 630.7739,744.75 Q629.2583,744.75 628.0552,744.125 Q627.0708,743.625 626.3833,742.5625 Q625.6958,741.4844 625.6958,740.2031 L625.6958,739.0469 Q625.6958,737.7188 626.3052,736.5781 Q626.9302,735.4219 628.0239,734.8125 Q629.1177,734.1875 630.3521,734.1875 Q631.0864,734.1875 631.7271,734.3594 Q632.3833,734.5156 632.9302,734.875 Z " fill="#000000"/><text fill="#000000" font-family="sans-serif" font-size="14" lengthAdjust="spacing" textLength="69.2617" x="650.6646" y="744.7969">PathVector</text><rect fill="#FFFFFF" height="17.9609" style="stroke:#181818;stroke-width:1.0;stroke-dasharray:2.0,2.0;" width="10.0039" x="879.0908" y="720"/><text fill="#000000" font-family="sans-serif" font-size="12" font-style="italic" lengthAdjust="spacing" textLength="8.0039" x="880.0908" y="733.9492">V</text><line style="stroke:#181818;stroke-width:0.5;" x1="465" x2="885.0947" y1="755" y2="755"/><line style="stroke:#181818;stroke-width:0.5;" x1="465" x2="885.0947" y1="763" y2="763"/><ellipse cx="475" cy="777.8105" fill="#84BE84" rx="3" ry="3" style="stroke:#038048;stroke-width:1.0;"/><text fill="#000000" font-family="sans-serif" font-size="14" lengthAdjust="spacing" textLength="396.0947" x="484" y="782.1074">recalculate(graph: Graph&lt;V, DefaultEdge&gt;, startVertex: V): void</text><ellipse cx="475" cy="796.4316" fill="#84BE84" rx="3" ry="3" style="stroke:#038048;stroke-width:1.0;"/><text fill="#000000" font-family="sans-serif" font-size="14" lengthAdjust="spacing" textLength="185.2061" x="484" y="800.7285">getNextHop(destination: V): V</text></g><!--class Dijkstra--><g id="elem_Dijkstra"><rect codeLine="17" fill="#F1F1F1" height="85.2422" id="Dijkstra" rx="2.5" ry="2.5" style="stroke:#181818;stroke-width:0.5;" width="422.0947" x="921" y="723"/><ellipse cx="1098.4609" cy="739" fill="#ADD1B2" rx="11" ry="11" style="stroke:#181818;stroke-width:1.0;"/><path d="M1101.2266,734.875 Q1101.3828,734.6563 1101.5703,734.5469 Q1101.7578,734.4375 1101.9766,734.4375 Q1102.3516,734.4375 1102.5859,734.7031 Q1102.8203,734.9531 1102.8203,735.5625 L1102.8203,737.0156 Q1102.8203,737.625 1102.5859,737.8906 Q1102.3516,738.1563 1101.9766,738.1563 Q1101.6328,738.1563 1101.4297,737.9531 Q1101.2266,737.7656 1101.1172,737.25 Q1101.0703,736.8906 1100.8828,736.7031 Q1100.5547,736.3281 1099.9453,736.1094 Q1099.3359,735.8906 1098.7109,735.8906 Q1097.9453,735.8906 1097.3047,736.2188 Q1096.6797,736.5469 1096.1797,737.2969 Q1095.6953,738.0469 1095.6953,739.0781 L1095.6953,740.1719 Q1095.6953,741.4063 1096.5859,742.2344 Q1097.4766,743.0469 1099.0703,743.0469 Q1100.0078,743.0469 1100.6641,742.7969 Q1101.0547,742.6406 1101.4766,742.2031 Q1101.7422,741.9375 1101.8828,741.8594 Q1102.0391,741.7813 1102.2422,741.7813 Q1102.5703,741.7813 1102.8203,742.0469 Q1103.0859,742.2969 1103.0859,742.6406 Q1103.0859,742.9844 1102.7422,743.3906 Q1102.2422,743.9688 1101.4453,744.2969 Q1100.3672,744.75 1099.0703,744.75 Q1097.5547,744.75 1096.3516,744.125 Q1095.3672,743.625 1094.6797,742.5625 Q1093.9922,741.4844 1093.9922,740.2031 L1093.9922,739.0469 Q1093.9922,737.7188 1094.6016,736.5781 Q1095.2266,735.4219 1096.3203,734.8125 Q1097.4141,734.1875 1098.6484,734.1875 Q1099.3828,734.1875 1100.0234,734.3594 Q1100.6797,734.5156 1101.2266,734.875 Z " fill="#000000"/><text fill="#000000" font-family="sans-serif" font-size="14" lengthAdjust="spacing" textLength="46.6689" x="1118.9609" y="744.7969">Dijkstra</text><rect fill="#FFFFFF" height="17.9609" style="stroke:#181818;stroke-width:1.0;stroke-dasharray:2.0,2.0;" width="10.0039" x="1336.0908" y="720"/><text fill="#000000" font-family="sans-serif" font-size="12" font-style="italic" lengthAdjust="spacing" textLength="8.0039" x="1337.0908" y="733.9492">V</text><line style="stroke:#181818;stroke-width:0.5;" x1="922" x2="1342.0947" y1="755" y2="755"/><line style="stroke:#181818;stroke-width:0.5;" x1="922" x2="1342.0947" y1="763" y2="763"/><ellipse cx="932" cy="777.8105" fill="#84BE84" rx="3" ry="3" style="stroke:#038048;stroke-width:1.0;"/><text fill="#000000" font-family="sans-serif" font-size="14" lengthAdjust="spacing" textLength="396.0947" x="941" y="782.1074">recalculate(graph: Graph&lt;V, DefaultEdge&gt;, startVertex: V): void</text><ellipse cx="932" cy="796.4316" fill="#84BE84" rx="3" ry="3" style="stroke:#038048;stroke-width:1.0;"/><text fill="#000000" font-family="sans-serif" font-size="14" lengthAdjust="spacing" textLength="185.2061" x="941" y="800.7285">getNextHop(destination: V): V</text></g><!--class Router--><g id="elem_Router"><rect codeLine="22" fill="#F1F1F1" height="308.6953" id="Router" rx="2.5" ry="2.5" style="stroke:#181818;stroke-width:0.5;" width="555.9355" x="619" y="134"/><ellipse cx="871.7075" cy="150" fill="#ADD1B2" rx="11" ry="11" style="stroke:#181818;stroke-width:1.0;"/><path d="M874.4731,145.875 Q874.6294,145.6563 874.8169,145.5469 Q875.0044,145.4375 875.2231,145.4375 Q875.5981,145.4375 875.8325,145.7031 Q876.0669,145.9531 876.0669,146.5625 L876.0669,148.0156 Q876.0669,148.625 875.8325,148.8906 Q875.5981,149.1563 875.2231,149.1563 Q874.8794,149.1563 874.6763,148.9531 Q874.4731,148.7656 874.3638,148.25 Q874.3169,147.8906 874.1294,147.7031 Q873.8013,147.3281 873.1919,147.1094 Q872.5825,146.8906 871.9575,146.8906 Q871.1919,146.8906 870.5513,147.2188 Q869.9263,147.5469 869.4263,148.2969 Q868.9419,149.0469 868.9419,150.0781 L868.9419,151.1719 Q868.9419,152.4063 869.8325,153.2344 Q870.7231,154.0469 872.3169,154.0469 Q873.2544,154.0469 873.9106,153.7969 Q874.3013,153.6406 874.7231,153.2031 Q874.9888,152.9375 875.1294,152.8594 Q875.2856,152.7813 875.4888,152.7813 Q875.8169,152.7813 876.0669,153.0469 Q876.3325,153.2969 876.3325,153.6406 Q876.3325,153.9844 875.9888,154.3906 Q875.4888,154.9688 874.6919,155.2969 Q873.6138,155.75 872.3169,155.75 Q870.8013,155.75 869.5981,155.125 Q868.6138,154.625 867.9263,153.5625 Q867.2388,152.4844 867.2388,151.2031 L867.2388,150.0469 Q867.2388,148.7188 867.8481,147.5781 Q868.4731,146.4219 869.5669,145.8125 Q870.6606,145.1875 871.895,145.1875 Q872.6294,145.1875 873.27,145.3594 Q873.9263,145.5156 874.4731,145.875 Z " fill="#000000"/><text fill="#000000" font-family="sans-serif" font-size="14" lengthAdjust="spacing" textLength="42.0205" x="892.2075" y="155.7969">Router</text><line style="stroke:#181818;stroke-width:0.5;" x1="620" x2="1173.9355" y1="166" y2="166"/><rect fill="none" height="6" style="stroke:#C82930;stroke-width:1.0;" width="6" x="627" y="177.8105"/><text fill="#000000" font-family="sans-serif" font-size="14" lengthAdjust="spacing" textLength="55.248" x="639" y="185.1074">id: String</text><rect fill="none" height="6" style="stroke:#C82930;stroke-width:1.0;" width="6" x="627" y="196.4316"/><text fill="#000000" font-family="sans-serif" font-size="14" lengthAdjust="spacing" textLength="220.2539" x="639" y="203.7285">graph: Graph&lt;String, DefaultEdge&gt;</text><rect fill="none" height="6" style="stroke:#C82930;stroke-width:1.0;" width="6" x="627" y="215.0527"/><text fill="#000000" font-family="sans-serif" font-size="14" lengthAdjust="spacing" textLength="199.2266" x="639" y="222.3496">neighbors: Map&lt;String, Router&gt;</text><rect fill="none" height="6" style="stroke:#C82930;stroke-width:1.0;" width="6" x="627" y="233.6738"/><text fill="#000000" font-family="sans-serif" font-size="14" lengthAdjust="spacing" textLength="177.4131" x="639" y="240.9707">algorithm: Algorithm&lt;String&gt;</text><rect fill="none" height="6" style="stroke:#C82930;stroke-width:1.0;" width="6" x="627" y="252.2949"/><text fill="#000000" font-family="sans-serif" font-size="14" lengthAdjust="spacing" textLength="218.6543" x="639" y="259.5918">visualizer: GraphVisualizer&lt;String&gt;</text><line style="stroke:#181818;stroke-width:0.5;" x1="620" x2="1173.9355" y1="267.1055" y2="267.1055"/><ellipse cx="630" cy="281.916" fill="#84BE84" rx="3" ry="3" style="stroke:#038048;stroke-width:1.0;"/><text fill="#000000" font-family="sans-serif" font-size="14" lengthAdjust="spacing" textLength="291.7852" x="639" y="286.2129">Router(id: String, algorithm: Algorithm&lt;String&gt;)</text><ellipse cx="630" cy="300.5371" fill="#84BE84" rx="3" ry="3" style="stroke:#038048;stroke-width:1.0;"/><text fill="#000000" font-family="sans-serif" font-size="14" lengthAdjust="spacing" textLength="298.0605" x="639" y="304.834">addNeighbor(neighbor: Router, weight: int): void</text><ellipse cx="630" cy="319.1582" fill="#84BE84" rx="3" ry="3" style="stroke:#038048;stroke-width:1.0;"/><text fill="#000000" font-family="sans-serif" font-size="14" lengthAdjust="spacing" textLength="362.6328" x="639" y="323.4551">sendMessage(message: String, destinationId: String): void</text><ellipse cx="630" cy="337.7793" fill="#84BE84" rx="3" ry="3" style="stroke:#038048;stroke-width:1.0;"/><text fill="#000000" font-family="sans-serif" font-size="14" lengthAdjust="spacing" textLength="529.9355" x="639" y="342.0762">receiveMessage(message: String, receivedGraph: Graph&lt;String, DefaultEdge&gt;): void</text><ellipse cx="630" cy="356.4004" fill="#84BE84" rx="3" ry="3" style="stroke:#038048;stroke-width:1.0;"/><text fill="#000000" font-family="sans-serif" font-size="14" lengthAdjust="spacing" textLength="108.9307" x="639" y="360.6973">printGraph(): void</text><rect fill="#F24D5C" height="6" style="stroke:#C82930;stroke-width:1.0;" width="6" x="627" y="372.0215"/><text fill="#000000" font-family="sans-serif" font-size="14" lengthAdjust="spacing" textLength="272.3574" x="639" y="379.3184">notifyNeighbors(newNeighbor: Router): void</text><rect fill="#F24D5C" height="6" style="stroke:#C82930;stroke-width:1.0;" width="6" x="627" y="390.6426"/><text fill="#000000" font-family="sans-serif" font-size="14" lengthAdjust="spacing" textLength="140.0615" x="639" y="397.9395">notifyNeighbors(): void</text><rect fill="#F24D5C" height="6" style="stroke:#C82930;stroke-width:1.0;" width="6" x="627" y="409.2637"/><text fill="#000000" font-family="sans-serif" font-size="14" lengthAdjust="spacing" textLength="404.6533" x="639" y="416.5605">mergeGraphs(receivedGraph: Graph&lt;String, DefaultEdge&gt;): void</text><ellipse cx="630" cy="430.8848" fill="#84BE84" rx="3" ry="3" style="stroke:#038048;stroke-width:1.0;"/><text fill="#000000" font-family="sans-serif" font-size="14" lengthAdjust="spacing" textLength="377.3711" x="639" y="435.1816">static setVisualizer(visualizer: GraphVisualizer&lt;String&gt;): void</text></g><!--class Main--><g id="elem_Main"><rect codeLine="39" fill="#F1F1F1" height="66.6211" id="Main" rx="2.5" ry="2.5" style="stroke:#181818;stroke-width:0.5;" width="178.4961" x="808" y="7"/><ellipse cx="877.8257" cy="23" fill="#ADD1B2" rx="11" ry="11" style="stroke:#181818;stroke-width:1.0;"/><path d="M880.5913,18.875 Q880.7476,18.6563 880.9351,18.5469 Q881.1226,18.4375 881.3413,18.4375 Q881.7163,18.4375 881.9507,18.7031 Q882.1851,18.9531 882.1851,19.5625 L882.1851,21.0156 Q882.1851,21.625 881.9507,21.8906 Q881.7163,22.1563 881.3413,22.1563 Q880.9976,22.1563 880.7944,21.9531 Q880.5913,21.7656 880.4819,21.25 Q880.4351,20.8906 880.2476,20.7031 Q879.9194,20.3281 879.3101,20.1094 Q878.7007,19.8906 878.0757,19.8906 Q877.3101,19.8906 876.6694,20.2188 Q876.0444,20.5469 875.5444,21.2969 Q875.0601,22.0469 875.0601,23.0781 L875.0601,24.1719 Q875.0601,25.4063 875.9507,26.2344 Q876.8413,27.0469 878.4351,27.0469 Q879.3726,27.0469 880.0288,26.7969 Q880.4194,26.6406 880.8413,26.2031 Q881.1069,25.9375 881.2476,25.8594 Q881.4038,25.7813 881.6069,25.7813 Q881.9351,25.7813 882.1851,26.0469 Q882.4507,26.2969 882.4507,26.6406 Q882.4507,26.9844 882.1069,27.3906 Q881.6069,27.9688 880.8101,28.2969 Q879.7319,28.75 878.4351,28.75 Q876.9194,28.75 875.7163,28.125 Q874.7319,27.625 874.0444,26.5625 Q873.3569,25.4844 873.3569,24.2031 L873.3569,23.0469 Q873.3569,21.7188 873.9663,20.5781 Q874.5913,19.4219 875.6851,18.8125 Q876.7788,18.1875 878.0132,18.1875 Q878.7476,18.1875 879.3882,18.3594 Q880.0444,18.5156 880.5913,18.875 Z " fill="#000000"/><text fill="#000000" font-family="sans-serif" font-size="14" lengthAdjust="spacing" textLength="30.3447" x="898.3257" y="28.7969">Main</text><line style="stroke:#181818;stroke-width:0.5;" x1="809" x2="985.4961" y1="39" y2="39"/><line style="stroke:#181818;stroke-width:0.5;" x1="809" x2="985.4961" y1="47" y2="47"/><ellipse cx="819" cy="61.8105" fill="#84BE84" rx="3" ry="3" style="stroke:#038048;stroke-width:1.0;"/><text fill="#000000" font-family="sans-serif" font-size="14" lengthAdjust="spacing" textLength="152.4961" x="828" y="66.1074">main(args: String[]): void</text></g><!--class GraphVisualizer--><g id="elem_GraphVisualizer"><rect codeLine="43" fill="#F1F1F1" height="159.7266" id="GraphVisualizer" rx="2.5" ry="2.5" style="stroke:#181818;stroke-width:0.5;" width="397.1846" x="921.5" y="503"/><ellipse cx="1060.0405" cy="519" fill="#ADD1B2" rx="11" ry="11" style="stroke:#181818;stroke-width:1.0;"/><path d="M1062.8062,514.875 Q1062.9624,514.6563 1063.1499,514.5469 Q1063.3374,514.4375 1063.5562,514.4375 Q1063.9312,514.4375 1064.1655,514.7031 Q1064.3999,514.9531 1064.3999,515.5625 L1064.3999,517.0156 Q1064.3999,517.625 1064.1655,517.8906 Q1063.9312,518.1563 1063.5562,518.1563 Q1063.2124,518.1563 1063.0093,517.9531 Q1062.8062,517.7656 1062.6968,517.25 Q1062.6499,516.8906 1062.4624,516.7031 Q1062.1343,516.3281 1061.5249,516.1094 Q1060.9155,515.8906 1060.2905,515.8906 Q1059.5249,515.8906 1058.8843,516.2188 Q1058.2593,516.5469 1057.7593,517.2969 Q1057.2749,518.0469 1057.2749,519.0781 L1057.2749,520.1719 Q1057.2749,521.4063 1058.1655,522.2344 Q1059.0562,523.0469 1060.6499,523.0469 Q1061.5874,523.0469 1062.2437,522.7969 Q1062.6343,522.6406 1063.0562,522.2031 Q1063.3218,521.9375 1063.4624,521.8594 Q1063.6187,521.7813 1063.8218,521.7813 Q1064.1499,521.7813 1064.3999,522.0469 Q1064.6655,522.2969 1064.6655,522.6406 Q1064.6655,522.9844 1064.3218,523.3906 Q1063.8218,523.9688 1063.0249,524.2969 Q1061.9468,524.75 1060.6499,524.75 Q1059.1343,524.75 1057.9312,524.125 Q1056.9468,523.625 1056.2593,522.5625 Q1055.5718,521.4844 1055.5718,520.2031 L1055.5718,519.0469 Q1055.5718,517.7188 1056.1812,516.5781 Q1056.8062,515.4219 1057.8999,514.8125 Q1058.9937,514.1875 1060.228,514.1875 Q1060.9624,514.1875 1061.603,514.3594 Q1062.2593,514.5156 1062.8062,514.875 Z " fill="#000000"/><text fill="#000000" font-family="sans-serif" font-size="14" lengthAdjust="spacing" textLength="99.5996" x="1080.5405" y="524.7969">GraphVisualizer</text><rect fill="#FFFFFF" height="17.9609" style="stroke:#181818;stroke-width:1.0;stroke-dasharray:2.0,2.0;" width="10.0039" x="1311.6807" y="500"/><text fill="#000000" font-family="sans-serif" font-size="12" font-style="italic" lengthAdjust="spacing" textLength="8.0039" x="1312.6807" y="513.9492">V</text><line style="stroke:#181818;stroke-width:0.5;" x1="922.5" x2="1317.6846" y1="535" y2="535"/><rect fill="none" height="6" style="stroke:#C82930;stroke-width:1.0;" width="6" x="929.5" y="546.8105"/><text fill="#000000" font-family="sans-serif" font-size="14" lengthAdjust="spacing" textLength="122.9238" x="941.5" y="554.1074">mxGraph: mxGraph</text><rect fill="none" height="6" style="stroke:#C82930;stroke-width:1.0;" width="6" x="929.5" y="565.4316"/><text fill="#000000" font-family="sans-serif" font-size="14" lengthAdjust="spacing" textLength="87.9375" x="941.5" y="572.7285">parent: Object</text><rect fill="none" height="6" style="stroke:#C82930;stroke-width:1.0;" width="6" x="929.5" y="584.0527"/><text fill="#000000" font-family="sans-serif" font-size="14" lengthAdjust="spacing" textLength="174.3027" x="941.5" y="591.3496">vertexMap: Map&lt;V, Object&gt;</text><line style="stroke:#181818;stroke-width:0.5;" x1="922.5" x2="1317.6846" y1="598.8633" y2="598.8633"/><ellipse cx="932.5" cy="613.6738" fill="#84BE84" rx="3" ry="3" style="stroke:#038048;stroke-width:1.0;"/><text fill="#000000" font-family="sans-serif" font-size="14" lengthAdjust="spacing" textLength="301.9434" x="941.5" y="617.9707">GraphVisualizer(graph: Graph&lt;V, DefaultEdge&gt;)</text><ellipse cx="932.5" cy="632.2949" fill="#84BE84" rx="3" ry="3" style="stroke:#038048;stroke-width:1.0;"/><text fill="#000000" font-family="sans-serif" font-size="14" lengthAdjust="spacing" textLength="371.1846" x="941.5" y="636.5918">updateMessage(source: V, target: V, message: String): void</text><ellipse cx="932.5" cy="650.916" fill="#84BE84" rx="3" ry="3" style="stroke:#038048;stroke-width:1.0;"/><text fill="#000000" font-family="sans-serif" font-size="14" lengthAdjust="spacing" textLength="326.0605" x="941.5" y="655.2129">static visualize(graph: Graph&lt;V, DefaultEdge&gt;): void</text></g><!--reverse link Algorithm to BellmanFord--><g id="link_Algorithm_BellmanFord"><path d="M553.1285,632.1323 C479.1985,661.3323 397.4,693.64 323.41,722.87 " fill="none" id="Algorithm-backto-BellmanFord" style="stroke:#181818;stroke-width:1.0;stroke-dasharray:7.0,7.0;"/><polygon fill="none" points="569.87,625.52,550.9244,626.5519,555.3326,637.7128,569.87,625.52" style="stroke:#181818;stroke-width:1.0;"/></g><!--reverse link Algorithm to PathVector--><g id="link_Algorithm_PathVector"><path d="M675,643.86 C675,673.02 675,693.75 675,722.86 " fill="none" id="Algorithm-backto-PathVector" style="stroke:#181818;stroke-width:1.0;stroke-dasharray:7.0,7.0;"/><polygon fill="none" points="675,625.86,669,643.86,681,643.86,675,625.86" style="stroke:#181818;stroke-width:1.0;"/></g><!--reverse link Algorithm to Dijkstra--><g id="link_Algorithm_Dijkstra"><path d="M796.8715,632.1323 C870.8015,661.3323 952.6,693.64 1026.59,722.87 " fill="none" id="Algorithm-backto-Dijkstra" style="stroke:#181818;stroke-width:1.0;stroke-dasharray:7.0,7.0;"/><polygon fill="none" points="780.13,625.52,794.6674,637.7128,799.0756,626.5519,780.13,625.52" style="stroke:#181818;stroke-width:1.0;"/></g><!--link Router to Algorithm--><g id="link_Router_Algorithm"><path codeLine="53" d="M780.47,443.03 C753.26,478.89 730.107,509.3903 710.347,535.4303 " fill="none" id="Router-to-Algorithm" style="stroke:#181818;stroke-width:1.0;"/><polygon fill="#181818" points="706.72,540.21,715.3469,535.4585,709.7425,536.227,708.974,530.6225,706.72,540.21" style="stroke:#181818;stroke-width:1.0;"/></g><!--link Router to GraphVisualizer--><g id="link_Router_GraphVisualizer"><path codeLine="54" d="M1014.05,443.03 C1029.82,463.72 1041.8124,479.4384 1056.0224,498.0784 " fill="none" id="Router-to-GraphVisualizer" style="stroke:#181818;stroke-width:1.0;"/><polygon fill="#181818" points="1059.66,502.85,1057.3847,493.2676,1056.6287,498.8737,1051.0226,498.1177,1059.66,502.85" style="stroke:#181818;stroke-width:1.0;"/></g><!--link Main to Router--><g id="link_Main_Router"><path codeLine="55" d="M897,74.17 C897,90.44 897,105.41 897,127.84 " fill="none" id="Main-to-Router" style="stroke:#181818;stroke-width:1.0;"/><polygon fill="#181818" points="897,133.84,901,124.84,897,128.84,893,124.84,897,133.84" style="stroke:#181818;stroke-width:1.0;"/></g><!--SRC=[pLJ1ZjCm4BtdAtpqQfiVi5QLG0iBXnO4KYw8msmyTRquTcHFkWN4l-F6Jj9aeI0kR2znPrvctepVYxQ4VWSriXT6EQzftznKQ_QzOF5txR46KtS62BdoqEu5kpizRgeLkyKTT8PUIONh5Gi4dYhqX4V1gYl13axBL4GXRV58RrpB9GRI5aWxcr1LyQCeQWCXi9TeJ0FsjVFon40thS46BON_pkmzqBx2cfn_PiHkzSENG1wU6QqFhekYofrBBGNxI5vRbVxFkgV4d4A2MTHgV-zy46m3xGXCjJC6Xa75sSm9cH477Jem-XlwtB4Q0pFWTQhB9x8hTgdwLNeBfDncddmWB3B75NiyHKWmRMcsne1MRZ04KCYRz9owdYtsxKXczdgyIjG7_6s5d9TtVrhqh6eRyzHZ-Ncyj8xqxkimPOXZFcuNarx4pv8DUeLzay3_ZMPK9-cQ1QJf9lbVtF9GP1Jf1hGTpD74CmUlmh34Jv-Vu9TrHskLpJ6Fa0yfseAFPXJitVr3_7HaDVQkYd9EcexMIzcimKMBYpxD0knQ6HqzI26upjTH2H4RJHpTsXyN0ldLEiS5NkuvxQJ87Y_BzMIEy-1Ybg9VzocHCCLF]--></g></svg>